<?xml version="1.0" encoding="utf-8"?>
<!-- Generator: Adobe Illustrator 25.2.1, SVG Export Plug-In . SVG Version: 6.00 Build 0)  -->
<svg version="1.1" id="Layer_1" xmlns="http://www.w3.org/2000/svg" xmlns:xlink="http://www.w3.org/1999/xlink" x="0px" y="0px"
	 viewBox="0 0 657 657" style="enable-background:new 0 0 657 657;" xml:space="preserve">
<style type="text/css">
	.st0{fill:#4B354B;}
	.st1{fill:#FFFFFF;}
</style>
<g>
	<circle class="st0" cx="328.5" cy="328.5" r="328.5"/>
	<g>
		<g>
			<path class="st1" d="M215.7,394.7c0.6-0.3,0.9-0.9,0.9-1.6c0-6.2-17.4-25.2-21.1-37.9c-0.6-2.8-1.2-5.6-1.2-8.1
				c0-13,10.9-20.2,21.4-20.2c9.3,0,18,5.6,18,18c0,1.9,0,3.4-0.3,5.3c0,0.3,0,0.3,0,0.3c0,3.4,8.4,18,10.2,21.1
				c5,9,8.7,19.3,8.7,39.1v5.3c0,0-36.6,14.3-68.3,36.6c-29.5,20.8-38.2,36.3-38.2,46.9c0,4.7,1.6,8.4,4,11.2c2.8,3.4,9.9,5,18.9,5
				c20.5,0,50.3-8.4,57.4-23c3.7-7.1,13.4-13,22.4-13c6.8,0,13,3.4,15.5,11.8c0.3,0.6,0.3,1.2,0.3,2.2c0,11.8-22.4,32.6-52.8,45.3
				c-13,5.6-30.1,9.3-46,9.3c-21.7,0-41.6-6.8-49.4-24.5c-3.1-7.5-4.7-14.6-4.7-21.7C111.6,454,180.6,414.2,215.7,394.7z
				 M211.6,268.6c12.4,0,20.5,9.3,20.5,19.9c0,14.6-10.2,21.1-20.5,21.1s-20.5-6.5-20.5-18.3C191.1,281.6,198.6,268.6,211.6,268.6z"
				/>
		</g>
		<g>
			<path class="st1" d="M482.6,271c0.8-0.4,1.2-1.2,1.2-2c0-8-22.4-32.4-27.2-48.8c-0.8-3.6-1.6-7.2-1.6-10.4c0-16.8,14-26,27.6-26
				c12,0,23.2,7.2,23.2,23.2c0,2.4,0,4.4-0.4,6.8c0,0.4,0,0.4,0,0.4c0,4.4,10.8,23.2,13.2,27.2c6.4,11.6,11.2,24.8,11.2,50.4v6.8
				c0,0-47.2,18.4-88,47.2c-38,26.8-49.2,46.8-49.2,60.4c0,6,2,10.8,5.2,14.4c3.6,4.4,12.8,6.4,24.4,6.4c26.4,0,64.8-10.8,74-29.6
				c4.8-9.2,17.2-16.8,28.8-16.8c8.8,0,16.8,4.4,20,15.2c0.4,0.8,0.4,1.6,0.4,2.8c0,15.2-28.8,42-68,58.4c-16.8,7.2-38.8,12-59.2,12
				c-28,0-53.6-8.8-63.6-31.6c-4-9.6-6-18.8-6-28C348.6,347.4,437.4,296.2,482.6,271z M477.4,108.6c16,0,26.4,12,26.4,25.6
				c0,18.8-13.2,27.2-26.4,27.2S451,153,451,137.8C451,125.4,460.6,108.6,477.4,108.6z"/>
		</g>
		<g>
			<path class="st1" d="M421.4,165.9c-4.6,4.2-8.9,6.7-12.9,8.6c-3.6,1.6-6.9,2.6-10.1,4l-10.8,4.9c-16.6,7.6-49.4,23.6-82.3,47.8
				c-17,12.6-33.8,25.7-46.4,31.4c-7.6,3.5-13.8,4.1-17.2-0.8c-0.9-0.7-1.3-1.6-1.7-2.5c-8.8-19.3,24.6-37.7,68.3-62
				c28.2-15.5,58.3-31.4,79.9-41.2c13.5-6.1,23.6-10.2,27.3-9.2c5.5,1.3,8.2,3.8,9.5,6.5C427,158,424.3,162.9,421.4,165.9z"/>
		</g>
		<g>
			<path class="st1" d="M434.7,209.9c-4.6,4.2-8.9,6.7-12.9,8.6c-3.6,1.6-6.9,2.6-10.1,4l-10.8,4.9c-16.6,7.6-49.4,23.6-82.3,47.8
				c-17,12.6-33.8,25.7-46.4,31.4c-7.6,3.5-13.8,4.1-17.2-0.8c-0.9-0.7-1.3-1.6-1.7-2.5c-8.8-19.3,24.6-37.7,68.3-62
				c28.2-15.5,58.3-31.4,79.9-41.2c13.5-6.1,23.6-10.2,27.3-9.2c5.5,1.3,8.2,3.8,9.5,6.5C440.2,202,437.6,206.9,434.7,209.9z"/>
		</g>
	</g>
</g>
</svg>
